<svg width="20" height="20" viewBox="0 0 20 20" fill="none" xmlns="http://www.w3.org/2000/svg">
<path d="M8.30571 1.02615C8.68 0.492308 9.26 0 10 0C10.74 0 11.32 0.492308 11.6943 1.02615C12.0786 1.57231 12.3371 2.27692 12.4229 2.97538C12.5086 3.66769 12.4371 4.45231 12.0414 5.09077C11.62 5.76923 10.9129 6.15385 10 6.15385C9.08571 6.15385 8.38 5.76923 7.95857 5.09077C7.56429 4.45077 7.49143 3.66615 7.57714 2.97538C7.66286 2.27692 7.92143 1.57231 8.30571 1.02615ZM9.14857 4.23692C9.26286 4.42154 9.48571 4.61538 10 4.61538C10.5143 4.61538 10.7371 4.42308 10.8514 4.23692C10.9929 4.01077 11.0629 3.64154 11.0057 3.17846C10.9522 2.73643 10.7975 2.31564 10.5557 1.95385C10.3229 1.62308 10.1171 1.53846 10 1.53846C9.88286 1.53846 9.67714 1.62308 9.44429 1.95385C9.20246 2.31564 9.04783 2.73643 8.99429 3.17846C8.93714 3.64 9.00857 4.00923 9.14857 4.23692ZM1.42857 10.7692C1.42857 9.95318 1.72959 9.17055 2.26541 8.59352C2.80123 8.01648 3.52795 7.69231 4.28571 7.69231H15.7143C16.472 7.69231 17.1988 8.01648 17.7346 8.59352C18.2704 9.17055 18.5714 9.95318 18.5714 10.7692V18.4615H19.2857C19.4752 18.4615 19.6568 18.5426 19.7908 18.6868C19.9247 18.8311 20 19.0268 20 19.2308C20 19.4348 19.9247 19.6304 19.7908 19.7747C19.6568 19.919 19.4752 20 19.2857 20H0.714286C0.524845 20 0.343164 19.919 0.209209 19.7747C0.0752549 19.6304 0 19.4348 0 19.2308C0 19.0268 0.0752549 18.8311 0.209209 18.6868C0.343164 18.5426 0.524845 18.4615 0.714286 18.4615H1.42857V10.7692ZM2.85714 18.4615H17.1429V13.8769C17.0143 14.0046 16.8814 14.1354 16.7429 14.2677C16.2857 14.7046 15.7643 15.16 15.2443 15.5077C14.7529 15.8385 14.1543 16.1538 13.5714 16.1538C12.5314 16.1538 11.8686 15.3692 11.4357 14.8554C11.4063 14.8209 11.3768 14.7866 11.3471 14.7523C10.84 14.1585 10.5114 13.8462 10 13.8462C9.48857 13.8462 9.16 14.1585 8.65286 14.7523L8.56429 14.8554C8.13143 15.3692 7.46857 16.1538 6.42857 16.1538C5.86571 16.1538 5.27571 15.8308 4.8 15.5062C4.27277 15.1354 3.77186 14.723 3.30143 14.2723C3.15152 14.1309 3.00341 13.9873 2.85714 13.8415V18.4615ZM2.85714 11.6923C3.30071 12.1854 3.76251 12.6592 4.24143 13.1123C4.67857 13.5231 5.14 13.9185 5.56143 14.2046C6.01857 14.5154 6.30571 14.6154 6.42857 14.6154C6.79714 14.6154 7.04571 14.36 7.60143 13.7092L7.60571 13.7046C8.08571 13.1446 8.8 12.3077 10 12.3077C11.2 12.3077 11.9143 13.1446 12.3943 13.7046L12.3986 13.7092C12.9557 14.36 13.2029 14.6154 13.5714 14.6154C13.7286 14.6154 14.0371 14.5077 14.4871 14.2031C14.9496 13.8793 15.3872 13.5161 15.7957 13.1169C16.2646 12.6675 16.7141 12.1953 17.1429 11.7015V10.7692C17.1429 10.3612 16.9923 9.96989 16.7244 9.68137C16.4565 9.39286 16.0932 9.23077 15.7143 9.23077H4.28571C3.90683 9.23077 3.54347 9.39286 3.27556 9.68137C3.00765 9.96989 2.85714 10.3612 2.85714 10.7692V11.6923Z" fill="white" fill-opacity="0.64"/>
</svg>
