<svg width="28" height="21" viewBox="0 0 28 21" fill="none" xmlns="http://www.w3.org/2000/svg">
<path d="M22.9873 5C22.8103 7.25944 20.9876 9 19 9C17.0124 9 15.1867 7.26 15.0127 5C14.8315 2.64944 16.6058 1 19 1C21.3942 1 23.1685 2.69222 22.9873 5Z" stroke="black" stroke-linecap="round" stroke-linejoin="round"/>
<path d="M19 13C15.3793 13 11.8976 15.0231 11.0253 18.9631C10.9098 19.4844 11.2003 20 11.6765 20H26.3241C26.8002 20 27.0891 19.4844 26.9752 18.9631C26.103 14.96 22.6212 13 19 13Z" stroke="black" stroke-miterlimit="10"/>
<path d="M10.9891 5.99586C10.835 8.23586 9.23006 10 7.5 10C5.76994 10 4.16233 8.23655 4.01091 5.99586C3.85358 3.66552 5.41577 2 7.5 2C9.58423 2 11.1464 3.70828 10.9891 5.99586Z" stroke="black" stroke-linecap="round" stroke-linejoin="round"/>
<path d="M12 12.896C10.859 12.2489 9.60226 12 8.27032 12C4.98315 12 1.81609 14.0229 1.02274 17.9631C0.918439 18.4843 1.18268 19 1.61507 19H8.71283" stroke="black" stroke-miterlimit="10" stroke-linecap="round"/>
</svg>
