<svg width="69" height="69" viewBox="0 0 69 69" fill="none" xmlns="http://www.w3.org/2000/svg">
<path d="M62.6696 34.5001C62.6696 38.6157 61.7677 42.6814 60.0275 46.4111C58.2872 50.1407 55.7508 53.4437 52.5968 56.0877C49.4427 58.7316 45.7476 60.6523 41.7714 61.7147C37.7952 62.777 33.6345 62.9551 29.5821 62.2365C25.5296 61.5179 21.6839 59.92 18.3154 57.5553C14.9469 55.1906 12.1375 52.1165 10.0848 48.5492C8.03217 44.982 6.78613 41.0083 6.43438 36.9077C6.08262 32.8071 6.63369 28.6792 8.04881 24.8145L14.7691 27.2752C13.7135 30.158 13.3024 33.2372 13.5648 36.296C13.8272 39.3548 14.7567 42.319 16.2878 44.9799C17.819 47.6409 19.9146 49.934 22.4273 51.6979C24.94 53.4619 27.8087 54.6538 30.8316 55.1898C33.8545 55.7259 36.9581 55.593 39.9241 54.8006C42.8901 54.0081 45.6465 52.5754 47.9992 50.6031C50.352 48.6309 52.244 46.1671 53.5421 43.385C54.8402 40.6029 55.5129 37.5701 55.5129 34.5001H62.6696Z" fill="#DFF4FF"/>
<path d="M34.5004 62.6708C28.8435 62.6708 23.3177 60.9676 18.6423 57.783C13.967 54.5984 10.3588 50.0799 8.28748 44.8158C6.2162 39.5517 5.77782 33.786 7.02941 28.2693C8.28099 22.7525 11.1646 17.7404 15.3047 13.8856L20.2021 19.1454C17.1183 22.0168 14.9704 25.7501 14.0381 29.8593C13.1059 33.9686 13.4324 38.2633 14.9752 42.1843C16.5181 46.1054 19.2057 49.4711 22.6882 51.8432C26.1707 54.2153 30.2868 55.484 34.5004 55.484L34.5004 62.6708Z" fill="#DFF4FF"/>
<path d="M7.80305 25.513C9.99881 18.9902 14.5066 13.4969 20.4755 10.0703C26.4443 6.64371 33.4611 5.52088 40.2012 6.91381C46.9413 8.30674 52.9382 12.119 57.0597 17.631C61.1813 23.1429 63.1423 29.973 62.5726 36.8319L55.2926 36.2272C55.7146 31.147 54.2622 26.0881 51.2094 22.0056C48.1567 17.923 43.7149 15.0993 38.7228 14.0676C33.7306 13.0359 28.5334 13.8676 24.1124 16.4056C19.6915 18.9436 16.3526 23.0123 14.7263 27.8436L7.80305 25.513Z" fill="#DFF4FF"/>
<path d="M7.29078 27.2111C8.24821 23.6379 9.90006 20.2883 12.152 17.3535C14.4039 14.4187 17.2119 11.9562 20.4155 10.1066L24.0218 16.353C21.6385 17.729 19.5495 19.561 17.8742 21.7443C16.1988 23.9276 14.9699 26.4196 14.2577 29.0779L7.29078 27.2111Z" fill="#DFF4FF"/>
</svg>
