<svg width="48" height="48" viewBox="0 0 48 48" fill="none" xmlns="http://www.w3.org/2000/svg">
<circle cx="24" cy="24" r="24" fill="#D3DDE5"/>
<path d="M30.7292 20.0154V17.1538C30.7292 13.1477 27.5596 10 23.5256 10C19.4917 10 16.3221 13.1477 16.3221 17.1538V20.0154C13.8729 20.0154 12 21.8754 12 24.3077V34.3231C12 36.7554 13.8729 38.6154 16.3221 38.6154H30.7292C33.1784 38.6154 35.0513 36.7554 35.0513 34.3231V24.3077C35.0513 21.8754 33.1784 20.0154 30.7292 20.0154ZM19.2035 17.1538C19.2035 14.7215 21.0764 12.8615 23.5256 12.8615C25.9748 12.8615 27.8478 14.7215 27.8478 17.1538V20.0154H19.2035V17.1538ZM25.1104 29.3154L24.9663 29.4585V31.4615C24.9663 32.32 24.3901 32.8923 23.5256 32.8923C22.6612 32.8923 22.0849 32.32 22.0849 31.4615V29.4585C21.2205 28.6 21.0764 27.3123 21.9409 26.4538C22.8053 25.5954 24.1019 25.4523 24.9663 26.3108C25.8308 27.0262 25.9748 28.4569 25.1104 29.3154Z" fill="black"/>
</svg>
