<svg width="13" height="12" viewBox="0 0 13 12" fill="none" xmlns="http://www.w3.org/2000/svg">
<path d="M11 6.5C11 6.37844 11.0527 6.26186 11.1464 6.17591C11.2402 6.08996 11.3674 6.04167 11.5 6.04167C11.6326 6.04167 11.7598 6.08996 11.8536 6.17591C11.9473 6.26186 12 6.37844 12 6.5V11.5417C12 11.6632 11.9473 11.7798 11.8536 11.8658C11.7598 11.9517 11.6326 12 11.5 12H0.5C0.367392 12 0.240215 11.9517 0.146447 11.8658C0.0526785 11.7798 0 11.6632 0 11.5417V1.45833C0 1.33678 0.0526785 1.2202 0.146447 1.13424C0.240215 1.04829 0.367392 1 0.5 1H6C6.13261 1 6.25979 1.04829 6.35355 1.13424C6.44732 1.2202 6.5 1.33678 6.5 1.45833C6.5 1.57989 6.44732 1.69647 6.35355 1.78242C6.25979 1.86838 6.13261 1.91667 6 1.91667H1V11.0833H11V6.5Z" fill="#1F9A50"/>
<path d="M5.20581 6.92712L6.11923 6.81098L11.7304 1.82394C11.7833 1.77854 11.8255 1.72424 11.8545 1.6642C11.8835 1.60416 11.8988 1.53959 11.8994 1.47424C11.9 1.4089 11.886 1.3441 11.8582 1.28362C11.8304 1.22314 11.7893 1.1682 11.7373 1.12199C11.6853 1.07579 11.6235 1.03925 11.5555 1.0145C11.4874 0.98976 11.4145 0.977309 11.341 0.977877C11.2675 0.978445 11.1949 0.99202 11.1273 1.01781C11.0598 1.0436 10.9987 1.08109 10.9476 1.12809L5.33535 6.11514L5.2047 6.92712H5.20581ZM12.5132 0.431265C12.6675 0.568368 12.79 0.731159 12.8735 0.910338C12.957 1.08952 13 1.28157 13 1.47552C13 1.66948 12.957 1.86153 12.8735 2.04071C12.79 2.21989 12.6675 2.38268 12.5132 2.51978L6.77247 7.62297C6.68781 7.6985 6.57785 7.74754 6.45913 7.76273L4.63229 7.995C4.54715 8.00587 4.46033 7.99896 4.37872 7.9748C4.29712 7.95065 4.22296 7.90993 4.16214 7.85586C4.10132 7.8018 4.05551 7.73588 4.02834 7.66334C4.00117 7.59079 3.9934 7.51362 4.00562 7.43793L4.26692 5.81397C4.28369 5.70856 4.33847 5.61082 4.42303 5.53543L10.1649 0.43225C10.4763 0.15548 10.8987 0 11.339 0C11.7794 0 12.2018 0.15548 12.5132 0.43225V0.431265Z" fill="#1F9A50"/>
</svg>
