<svg width="48" height="48" viewBox="0 0 48 48" fill="none" xmlns="http://www.w3.org/2000/svg">
<circle cx="24" cy="24" r="24" fill="#D3DDE5"/>
<path d="M34.045 21.1733H27.3142V14.4425C27.3142 13.55 26.9597 12.694 26.3285 12.0628C25.6974 11.4317 24.8414 11.0771 23.9488 11.0771C23.0563 11.0771 22.2003 11.4317 21.5692 12.0628C20.938 12.694 20.5835 13.55 20.5835 14.4425L20.7029 21.1733H13.8527C12.9601 21.1733 12.1041 21.5279 11.473 22.159C10.8419 22.7901 10.4873 23.6461 10.4873 24.5387C10.4873 25.4312 10.8419 26.2872 11.473 26.9184C12.1041 27.5495 12.9601 27.9041 13.8527 27.9041L20.7029 27.7846L20.5835 34.6348C20.5835 35.5274 20.938 36.3834 21.5692 37.0145C22.2003 37.6457 23.0563 38.0002 23.9488 38.0002C24.8414 38.0002 25.6974 37.6457 26.3285 37.0145C26.9597 36.3834 27.3142 35.5274 27.3142 34.6348V27.7846L34.045 27.9041C34.9376 27.9041 35.7936 27.5495 36.4247 26.9184C37.0558 26.2872 37.4104 25.4312 37.4104 24.5387C37.4104 23.6461 37.0558 22.7901 36.4247 22.159C35.7936 21.5279 34.9376 21.1733 34.045 21.1733Z" fill="black"/>
</svg>
