<svg width="51" height="51" viewBox="0 0 51 51" fill="none" xmlns="http://www.w3.org/2000/svg">
<path d="M15 28.5V19.5C15 17.1131 15.9482 14.8239 17.636 13.136C19.3239 11.4482 21.6131 10.5 24 10.5H39C41.3869 10.5 43.6761 11.4482 45.364 13.136C47.0518 14.8239 48 17.1131 48 19.5V28.5C48 30.8869 47.0518 33.1761 45.364 34.864C43.6761 36.5518 41.3869 37.5 39 37.5H24C21.6131 37.5 19.3239 36.5518 17.636 34.864C15.9482 33.1761 15 30.8869 15 28.5Z" stroke="#3FCA9D" stroke-width="1.5"/>
<path d="M27 19.5C28.1935 19.5 29.3381 19.9741 30.182 20.818C31.0259 21.6619 31.5 22.8065 31.5 24C31.5 25.1935 31.0259 26.3381 30.182 27.182C29.3381 28.0259 28.1935 28.5 27 28.5C25.8065 28.5 24.6619 28.0259 23.818 27.182C22.9741 26.3381 22.5 25.1935 22.5 24C22.5 22.8065 22.9741 21.6619 23.818 20.818C24.6619 19.9741 25.8065 19.5 27 19.5Z" stroke="#3FCA9D" stroke-width="1.5"/>
<path d="M34.5 28.5V19.5L40.5 28.5V19.5" stroke="#3FCA9D" stroke-width="1.5" stroke-linecap="round" stroke-linejoin="round"/>
</svg>
