<svg width="48" height="48" viewBox="0 0 48 48" fill="none" xmlns="http://www.w3.org/2000/svg">
<circle cx="24" cy="24" r="24" fill="white"/>
<path d="M30.6875 19.15H19.1875V16.25C19.1875 15.09 19.6187 14.075 20.4812 13.205C22.2063 11.465 24.9375 11.465 26.5188 13.205C27.0938 13.785 27.3812 14.51 27.6687 15.235C27.8125 15.96 28.675 16.395 29.3938 16.25C30.1125 16.105 30.6875 15.235 30.4 14.51C30.1125 13.205 29.3937 12.045 28.5312 11.175C27.2375 9.725 25.3687 9 23.5 9C19.475 9 16.3125 12.19 16.3125 16.25V19.15C13.8687 19.15 12 21.035 12 23.5V33.65C12 36.115 13.8687 38 16.3125 38H30.6875C33.1313 38 35 36.115 35 33.65V23.5C35 21.035 33.1313 19.15 30.6875 19.15ZM25.0813 28.575L24.9375 28.72V30.75C24.9375 31.62 24.3625 32.2 23.5 32.2C22.6375 32.2 22.0625 31.62 22.0625 30.75V28.72C21.2 27.85 21.0562 26.545 21.9187 25.675C22.7812 24.805 24.075 24.66 24.9375 25.53C25.8 26.255 25.9438 27.705 25.0813 28.575Z" fill="black"/>
</svg>
