<svg width="24" height="24" viewBox="0 0 24 24" fill="none" xmlns="http://www.w3.org/2000/svg">
<g clip-path="url(#clip0_144_9539)">
<path d="M12 1C5.9247 1 1 5.9247 1 12C1 18.0753 5.9247 23 12 23C18.0753 23 23 18.0753 23 12C23 5.9247 18.0753 1 12 1Z" stroke="#5A5A7E" stroke-width="1.5" stroke-linecap="round" stroke-linejoin="round"/>
<path fill-rule="evenodd" clip-rule="evenodd" d="M9.33333 8.66667C9.33333 7.95942 9.61428 7.28115 10.1144 6.78105C10.6145 6.28095 11.2928 6 12 6C12.7072 6 13.3855 6.28095 13.8856 6.78105C14.3857 7.28115 14.6667 7.95942 14.6667 8.66667C14.6667 9.37391 14.3857 10.0522 13.8856 10.5523C13.3855 11.0524 12.7072 11.3333 12 11.3333C11.2928 11.3333 10.6145 11.0524 10.1144 10.5523C9.61428 10.0522 9.33333 9.37391 9.33333 8.66667ZM9.33333 12.6667C8.44928 12.6667 7.60143 13.0179 6.97631 13.643C6.35119 14.2681 6 15.1159 6 16C6 16.5304 6.21071 17.0391 6.58579 17.4142C6.96086 17.7893 7.46957 18 8 18H16C16.5304 18 17.0391 17.7893 17.4142 17.4142C17.7893 17.0391 18 16.5304 18 16C18 15.1159 17.6488 14.2681 17.0237 13.643C16.3986 13.0179 15.5507 12.6667 14.6667 12.6667H9.33333Z" fill="#5A5A7E"/>
</g>
<defs>
<clipPath id="clip0_144_9539">
<rect width="24" height="24" fill="white"/>
</clipPath>
</defs>
</svg>
