<svg width="35" height="35" viewBox="0 0 35 35" fill="none" xmlns="http://www.w3.org/2000/svg">
<path d="M10.3891 0H28.984C30.5795 0 32.1097 0.633796 33.238 1.76196C34.3662 2.89012 35 4.42024 35 6.01571V24.6097C35 26.2052 34.3662 27.7353 33.238 28.8635C32.1097 29.9916 30.5795 30.6254 28.984 30.6254H19.9512L17.7636 28.4379H28.984C29.9993 28.4379 30.9731 28.0346 31.6911 27.3166C32.409 26.5987 32.8124 25.625 32.8124 24.6097V6.01571C32.8124 5.00041 32.409 4.0267 31.6911 3.30878C30.9731 2.59086 29.9993 2.18753 28.984 2.18753H10.3891C9.37374 2.18753 8.39998 2.59086 7.68202 3.30878C6.96406 4.0267 6.56072 5.00041 6.56072 6.01571V13.1842C5.81471 13.268 5.08073 13.4368 4.37308 13.6874V6.01571C4.37308 4.42024 5.00691 2.89012 6.13513 1.76196C7.26335 0.633796 8.79354 0 10.3891 0ZM18.5927 24.0628C18.3026 24.0628 18.0244 23.9476 17.8193 23.7425C17.6141 23.5374 17.4989 23.2592 17.4989 22.9691C17.4989 22.679 17.6141 22.4008 17.8193 22.1957C18.0244 21.9905 18.3026 21.8753 18.5927 21.8753H27.3433C27.6334 21.8753 27.9116 21.9905 28.1167 22.1957C28.3218 22.4008 28.4371 22.679 28.4371 22.9691C28.4371 23.2592 28.3218 23.5374 28.1167 23.7425C27.9116 23.9476 27.6334 24.0628 27.3433 24.0628H18.5927ZM14.2174 9.297C14.2174 9.73213 14.0446 10.1494 13.7369 10.4571C13.4292 10.7648 13.0119 10.9377 12.5767 10.9377C12.1416 10.9377 11.7242 10.7648 11.4166 10.4571C11.1089 10.1494 10.936 9.73213 10.936 9.297C10.936 8.86188 11.1089 8.44457 11.4166 8.13689C11.7242 7.82921 12.1416 7.65636 12.5767 7.65636C13.0119 7.65636 13.4292 7.82921 13.7369 8.13689C14.0446 8.44457 14.2174 8.86188 14.2174 9.297ZM18.5927 8.75012C18.3026 8.75012 18.0244 8.86536 17.8193 9.07048C17.6141 9.2756 17.4989 9.5538 17.4989 9.84389C17.4989 10.134 17.6141 10.4122 17.8193 10.6173C18.0244 10.8224 18.3026 10.9377 18.5927 10.9377H27.3433C27.6334 10.9377 27.9116 10.8224 28.1167 10.6173C28.3218 10.4122 28.4371 10.134 28.4371 9.84389C28.4371 9.5538 28.3218 9.2756 28.1167 9.07048C27.9116 8.86536 27.6334 8.75012 27.3433 8.75012H18.5927ZM18.5927 15.3127C18.3026 15.3127 18.0244 15.4279 17.8193 15.6331C17.6141 15.8382 17.4989 16.1164 17.4989 16.4065C17.4989 16.6966 17.6141 16.9748 17.8193 17.1799C18.0244 17.385 18.3026 17.5002 18.5927 17.5002H27.3433C27.6334 17.5002 27.9116 17.385 28.1167 17.1799C28.3218 16.9748 28.4371 16.6966 28.4371 16.4065C28.4371 16.1164 28.3218 15.8382 28.1167 15.6331C27.9116 15.4279 27.6334 15.3127 27.3433 15.3127H18.5927ZM7.65454 30.6254C9.37402 30.6254 10.9622 30.0567 12.2398 29.1007L17.8183 34.6789C17.9199 34.7806 18.0404 34.8613 18.1732 34.9164C18.3059 34.9715 18.4482 34.9999 18.5919 35C18.7357 35.0001 18.878 34.9719 19.0108 34.917C19.1436 34.8621 19.2644 34.7816 19.3661 34.68C19.4678 34.5785 19.5485 34.4579 19.6035 34.3251C19.6586 34.1924 19.687 34.0501 19.6871 33.9064C19.6873 33.7627 19.659 33.6203 19.6041 33.4875C19.5492 33.3547 19.4687 33.234 19.3671 33.1323L13.7887 27.5541C14.8213 26.1733 15.3575 24.4844 15.3106 22.7609C15.2637 21.0373 14.6364 19.38 13.5303 18.0574C12.4242 16.7348 10.9039 15.8242 9.2158 15.4731C7.52766 15.122 5.77043 15.351 4.22864 16.123C2.68685 16.8949 1.45077 18.1647 0.720537 19.7266C-0.00969023 21.2885 -0.191312 23.0512 0.205081 24.7292C0.601474 26.4072 1.55267 27.9023 2.90466 28.9724C4.25665 30.0425 5.93027 30.6249 7.65454 30.6254ZM7.65454 28.4379C6.20404 28.4379 4.81296 27.8617 3.78731 26.8361C2.76165 25.8105 2.18545 24.4195 2.18545 22.9691C2.18545 21.5186 2.76165 20.1276 3.78731 19.102C4.81296 18.0764 6.20404 17.5002 7.65454 17.5002C9.10503 17.5002 10.4961 18.0764 11.5218 19.102C12.5474 20.1276 13.1236 21.5186 13.1236 22.9691C13.1236 24.4195 12.5474 25.8105 11.5218 26.8361C10.4961 27.8617 9.10503 28.4379 7.65454 28.4379Z" fill="#431A76"/>
</svg>
