<svg width="25" height="25" viewBox="0 0 25 25" fill="none" xmlns="http://www.w3.org/2000/svg">
<path d="M11.4375 4.375C12.5766 4.375 13.5 3.45159 13.5 2.3125C13.5 1.17341 12.5766 0.25 11.4375 0.25C10.2984 0.25 9.375 1.17341 9.375 2.3125C9.375 3.45159 10.2984 4.375 11.4375 4.375Z" fill="white" fill-opacity="0.64"/>
<path d="M11 5H9.5C8.09 5 7 5.8595 7 7.2935V13.5C7 14.5 8.5 14.5 8.5 13.5V7.5H9V23.5C9 24.1165 9.384 24.5 10 24.5C10.6175 24.5 11 24.1165 11 23.5V5ZM17.5 12.5L15.4915 7.3215C15.317 6.161 14.145 5 12.8075 5H11.5V16.8915C11.75 16.8925 12 16.929 12 17V23.5C12 24.02 12.4585 24.5 13 24.5C13.543 24.5 14 24.0195 14 23.5V17H15.9345C16.1155 17 16.4565 16.673 16.4565 16.5C16.4565 16.46 16.471 16.0345 16.4565 16L13.502 7.8815L13.485 7.798C13.485 7.6795 13.5845 7.5835 13.7085 7.5835C13.814 7.5835 13.9025 7.654 13.926 7.748L15.9345 13C16.068 13.3005 16.617 13.5 16.978 13.5C17.4605 13.5 17.5105 12.5525 17.5 12.5Z" fill="white" fill-opacity="0.64"/>
</svg>
