<svg width="25" height="25" viewBox="0 0 25 25" fill="none" xmlns="http://www.w3.org/2000/svg">
<path d="M3.90625 4.6875C2.62109 4.6875 1.5625 5.74609 1.5625 7.03125V17.9688C1.5625 19.2539 2.62109 20.3125 3.90625 20.3125H21.0938C22.3789 20.3125 23.4375 19.2539 23.4375 17.9688V7.03125C23.4375 5.74609 22.3789 4.6875 21.0938 4.6875H3.90625ZM3.90625 6.25H21.0938C21.5359 6.25 21.875 6.58906 21.875 7.03125V17.9688C21.875 18.4109 21.5359 18.75 21.0938 18.75H3.90625C3.46406 18.75 3.125 18.4109 3.125 17.9688V7.03125C3.125 6.58906 3.46406 6.25 3.90625 6.25ZM8.59375 7.8125C6.875 7.8125 5.46875 9.21875 5.46875 10.9375C5.46875 11.807 5.84141 12.5914 6.42109 13.1594C5.88932 13.5182 5.45336 14.0017 5.1512 14.5676C4.84904 15.1335 4.68985 15.7647 4.6875 16.4062H6.25C6.25 15.1031 7.29063 14.0625 8.59375 14.0625C9.89688 14.0625 10.9375 15.1031 10.9375 16.4062H12.5C12.4977 15.7647 12.3385 15.1335 12.0363 14.5676C11.7341 14.0017 11.2982 13.5182 10.7664 13.1594C11.3461 12.5914 11.7188 11.8078 11.7188 10.9375C11.7188 9.21875 10.3125 7.8125 8.59375 7.8125ZM14.0625 8.59375V10.1562H20.3125V8.59375H14.0625ZM8.59375 9.375C9.46641 9.375 10.1562 10.0648 10.1562 10.9375C10.1562 11.8102 9.46641 12.5 8.59375 12.5C7.72109 12.5 7.03125 11.8102 7.03125 10.9375C7.03125 10.0648 7.72109 9.375 8.59375 9.375ZM14.0625 11.7188V13.2812H20.3125V11.7188H14.0625ZM14.0625 14.8438V16.4062H17.9688V14.8438H14.0625Z" fill="black"/>
</svg>
